<?xml version="1.0" encoding="utf-8"?>
<!-- Generator: Adobe Illustrator 19.1.0, SVG Export Plug-In . SVG Version: 6.00 Build 0)  -->
<!DOCTYPE svg PUBLIC "-//W3C//DTD SVG 1.1//EN" "http://www.w3.org/Graphics/SVG/1.1/DTD/svg11.dtd">
<svg version="1.1" id="Layer_1" xmlns="http://www.w3.org/2000/svg" xmlns:xlink="http://www.w3.org/1999/xlink" x="0px" y="0px"
	 width="320px" height="140px" viewBox="0 0 320 140" enable-background="new 0 0 320 140" xml:space="preserve">
<g transform="translate(18, 20)">
    <svg t="1597077311077" class="icon" viewBox="0 0 1152 1024" version="1.1" xmlns="http://www.w3.org/2000/svg" p-id="8110" width="24" height="24"><path d="M976 625.4V912c0 26.6-21.4 48-48 48H696c-13.2 0-24-10.8-24-24V712c0-13.2-10.8-24-24-24h-144c-13.2 0-24 10.8-24 24v224c0 13.2-10.8 24-24 24H224c-26.6 0-48-21.4-48-48V625.4c0-7.2 3.2-14 8.8-18.6l376-309.6c8.8-7.2 21.6-7.2 30.6 0l376 309.6c5.4 4.6 8.6 11.4 8.6 18.6z m167.2-121.8L976 365.8V88.8c0-13.2-10.8-24-24-24h-112c-13.2 0-24 10.8-24 24V234l-179-147.4c-35.4-29.2-86.6-29.2-122 0L8.8 503.6c-10.2 8.4-11.6 23.6-3.2 33.8l51 62c8.4 10.2 23.6 11.6 33.8 3.2l470.4-387.4c8.8-7.2 21.6-7.2 30.6 0l470.4 387.4c10.2 8.4 25.4 7 33.8-3.2l51-62c8.4-10.4 6.8-25.4-3.4-33.8z" fill="#8a8a8a" p-id="8111"></path></svg>
</g>
<g transform="translate(78, 20)">
<svg t="1595412775815" class="icon" viewBox="0 0 1024 1024" version="1.1" xmlns="http://www.w3.org/2000/svg" p-id="11114" width="24" height="24"><path d="M746.500337 444.954001l-39.047318 0c-7.852852 0-14.527878-3.227508-19.806091-9.903557-5.41022-6.588045-8.15882-14.44192-8.15882-23.559579 0-46.332235-16.316617-85.859483-48.950875-118.449739-32.722262-32.67826-72.249511-49.082882-118.581746-49.082882l-100.519368 0c-46.332235 0-85.773526 16.404622-118.449739 49.082882-32.67826 32.590256-49.082882 72.117504-49.082882 118.449739l0 201.01827c0 46.332235 16.404622 85.881996 49.082882 118.559233 32.676214 32.69975 72.117504 48.994877 118.449739 48.994877l201.125717 0c46.334281 0 85.773526-16.295128 118.451786-48.994877 32.67826-32.67826 49.080835-72.226998 49.080835-118.559233L780.094456 478.547097c0-9.140171-3.315512-16.991999-10.033517-23.668049C763.514849 448.313515 755.661997 444.954001 746.500337 444.954001zM388.575458 391.18233c7.066953-8.748245 15.399735-13.154601 25.12933-13.154601l107.281375 0c9.643638 0 18.063401 4.40738 25.131377 13.154601 7.02295 8.834202 10.600429 19.327184 10.600429 31.498388 0 12.08627-3.577478 22.578228-10.600429 31.41243-7.066953 8.834202-15.487739 13.240559-25.131377 13.240559L413.703765 467.333708c-9.729595 0-18.061354-4.40738-25.12933-13.240559-7.068999-8.834202-10.602476-19.327184-10.602476-31.41243C377.971959 410.509515 381.505435 400.016533 388.575458 391.18233zM636.121414 632.81767c-6.719028 8.855692-14.527878 13.263072-23.559579 13.263072L411.435095 646.080741c-9.031701 0-16.97051-4.40738-23.559579-13.263072-6.544043-8.81169-9.903557-19.327184-9.903557-31.498388 0-12.063757 3.359514-22.578228 9.903557-31.41243 6.589069-8.813736 14.527878-13.240559 23.559579-13.240559l201.125717 0c9.031701 0 16.84055 4.426823 23.559579 13.240559 6.544043 8.834202 9.903557 19.348674 9.903557 31.41243C646.024971 613.490485 642.664434 624.004957 636.121414 632.81767zM780.093433 65.213257 243.903497 65.213257c-98.642624 0-178.61298 80.101339-178.61298 178.744987l0 536.105001c0 98.730629 79.969333 178.722474 178.61298 178.722474l536.190959 0c98.642624 0 178.615027-79.991846 178.615027-178.722474L958.709483 243.958244C958.70846 145.31562 878.73708 65.213257 780.093433 65.213257zM869.401458 735.387743c0 74.015737-59.989279 133.983527-134.069485 133.983527L288.667004 869.37127c-74.082252 0-134.115534-59.96779-134.115534-133.983527l0-446.775486c0-74.015737 60.033281-133.961014 134.115534-133.961014l446.664969 0c74.080206 0 134.069485 59.945277 134.069485 133.961014L869.401458 735.387743z" p-id="11115" fill="#8a8a8a"></path></svg>
</g>
<g transform="translate(138, 20)">
	<svg t="1595412077354" class="icon" viewBox="0 0 1024 1024" version="1.1" xmlns="http://www.w3.org/2000/svg" p-id="4985" width="24" height="24"><path d="M1024 496C1012.8 232 798.4 17.6 534.4 8 393.6 1.6 259.2 52.8 156.8 150.4 56 248 0 379.2 0 520c0 230.4 155.2 433.6 376 492.8 6.4 1.6 12.8 3.2 19.2 3.2 16 0 32-4.8 44.8-16 17.6-14.4 28.8-35.2 28.8-57.6v-52.8c0-14.4 1.6-78.4 1.6-91.2 1.6-8 3.2-14.4 8-19.2 11.2-14.4 12.8-33.6 4.8-49.6-8-14.4-20.8-24-36.8-25.6-11.2-1.6-22.4-3.2-30.4-6.4-12.8-3.2-25.6-9.6-38.4-16-9.6-4.8-19.2-12.8-27.2-22.4-6.4-8-12.8-20.8-17.6-36.8-6.4-19.2-9.6-40-9.6-62.4 0-28.8 9.6-52.8 27.2-72l17.6-19.2-9.6-24c-3.2-8-6.4-19.2-4.8-38.4 22.4 8 28.8 12.8 28.8 12.8l1.6 1.6c6.4 3.2 11.2 8 16 9.6l19.2 11.2 16-4.8c27.2-8 54.4-11.2 83.2-11.2 28.8 0 56 3.2 83.2 11.2l16 4.8 33.6-20.8c11.2-6.4 22.4-12.8 35.2-17.6 1.6 14.4 0 27.2-4.8 40l-9.6 24 17.6 19.2c17.6 19.2 27.2 43.2 27.2 72 0 24-3.2 43.2-8 60.8-6.4 19.2-12.8 30.4-19.2 38.4-6.4 8-16 16-28.8 24-14.4 8-25.6 11.2-38.4 16-8 3.2-20.8 4.8-32 6.4h-1.6c-16 3.2-28.8 14.4-35.2 28.8-6.4 14.4-4.8 30.4 4.8 44.8 6.4 8 9.6 20.8 9.6 36.8v126.4c0 22.4 11.2 44.8 28.8 57.6 17.6 12.8 41.6 17.6 64 11.2C888 942.4 1035.2 729.6 1024 496zM651.2 931.2V816c0-14.4-1.6-27.2-4.8-38.4 17.6-4.8 35.2-11.2 54.4-22.4l1.6-1.6c20.8-12.8 36.8-25.6 49.6-41.6 16-19.2 25.6-41.6 33.6-64 8-25.6 12.8-52.8 12.8-86.4 0-41.6-11.2-76.8-33.6-108.8 6.4-33.6 3.2-67.2-11.2-104l-6.4-17.6-17.6-6.4c-17.6-6.4-40-4.8-67.2 6.4-17.6 6.4-33.6 14.4-51.2 24l-3.2 3.2c-56-12.8-116.8-12.8-174.4 0-1.6-1.6-3.2-1.6-4.8-3.2-9.6-6.4-24-14.4-46.4-22.4-27.2-12.8-51.2-14.4-70.4-8l-17.6 6.4-6.4 17.6c-14.4 38.4-17.6 72-9.6 104-22.4 30.4-33.6 67.2-33.6 108.8 0 30.4 3.2 57.6 12.8 84.8 8 27.2 19.2 49.6 32 65.6 16 17.6 32 32 51.2 41.6 17.6 9.6 35.2 17.6 54.4 22.4-1.6 4.8-1.6 9.6-3.2 16V843.2c-38.4-12.8-70.4-28.8-96-56-17.6-19.2-36.8-38.4-46.4-44.8-20.8-9.6-33.6 11.2-28.8 20.8 4.8 14.4 25.6 22.4 36.8 33.6 12.8 12.8 14.4 30.4 25.6 44.8 16 22.4 72 49.6 110.4 41.6v51.2C206.4 881.6 80 712 80 520c0-118.4 46.4-228.8 132.8-312C294.4 129.6 400 88 513.6 88h17.6C753.6 96 934.4 276.8 944 499.2c9.6 193.6-110.4 369.6-292.8 432z" p-id="4986" fill="#8a8a8a"></path></svg>
</g>
<g transform="translate(197, 20)">
<svg t="1615355175365" class="icon" viewBox="0 0 1024 1024" version="1.1" xmlns="http://www.w3.org/2000/svg" p-id="2133" width="25" height="25"><path d="M723.07624 239.356169c-17.756912 16.022945-37.442863 37.825781-59.070497 65.381416h113.237117c-1.647269 19.47643-2.470904 37.56388-2.470904 54.246094 0 15.421475 0.823635 35.150775 2.470904 59.184289h-64.286849v-63.96715h-400.889703v73.809222H247.777652c1.649075-25.021514 2.463679-46.39989 2.463679-64.120678 0-19.147699-0.814604-38.857131-2.463679-59.14997h123.073771c-19.606478-20.578222-38.48505-42.816357-56.632105-66.716211 16.066294-10.606102 32.139812-21.204979 48.2043-31.811081 24.736132 24.736132 46.50465 52.795702 65.303749 84.171485-15.240853 10.485085-27.548411 15.26614-36.904611 14.355807h90.760562c0-29.154137-0.807379-61.97128-2.431167-98.447819h66.718017c-1.621982 31.930291-2.429361 64.747435-2.429361 98.447819h59.106621c26.036608-38.282754 42.1896-69.477915 48.439108-93.587291 25.464037 11.84336 49.497551 21.244716 72.089704 28.204068zM715.699653 533.60325a953.32637 953.32637 0 0 0-2.47271 69.024555c0 23.643371 0.823635 47.476395 2.47271 71.500877h-64.281431V583.100801H373.60229v100.882597H309.315441c1.649075-28.348564 2.47271-53.830664 2.47271-76.448104 0-22.56506-0.825441-47.207269-2.47271-73.930238l406.384212-0.001806z" fill="#8a8a8a" p-id="2134"></path><path d="M545.870168 609.536582c-18.797293 55.826533-38.492275 92.304877-59.070497 109.445869-20.580028 17.142799-46.338479 31.984478-77.289801 44.516006-30.942291 12.54056-76.924945 22.957009-137.924481 31.245736-4.000769-17.209629-15.222791-37.590973-33.658841-61.153065 48.197075-1.988644 86.671288-6.571015 115.435283-13.763368 28.762188-7.186935 54.896331-19.398763 78.382561-36.62826 23.493455-17.236722 37.910673-48.249455 43.248043-93.041812 23.627115 6.457223 47.252424 12.921671 70.877733 19.378894zM688.637115 511.713715H336.377979c1.649075-26.697683 2.47271-49.723328 2.47271-69.069711 0-19.216335-0.825441-39.760239-2.47271-61.615456h352.259136v130.685167z m-64.288656-47.026647v-34.206124H400.664829v34.206124h223.68363zM579.164152 649.228185c77.50474 30.306503 141.881901 62.533014 193.133288 96.684951-16.057263 14.615902-30.292053 30.06447-42.70979 46.356541-36.377196-26.777156-97.703657-57.585787-183.993833-92.443956 13.393094-19.899085 24.578991-36.76192 33.570335-50.597536z" fill="#8a8a8a" p-id="2135"></path><path d="M1023.999097 511.999097c0 282.770383-229.23052 511.999097-511.993678 511.999097C229.231423 1024 0.000903 794.771286 0.000903 511.999097 0.000903 229.235939 229.231423 0 512.003612 0 794.768577 0 1023.999097 229.235939 1023.999097 511.999097zM512.003612 76.802122c-240.356812 0-435.207812 194.849193-435.207811 435.196975 0 240.355006 194.851 435.206006 435.207811 435.206006 240.349588 0 435.198781-194.851 435.198781-435.206006 0-240.345975-194.849193-435.196975-435.198781-435.196975z" fill="#8a8a8a" p-id="2136"></path></svg>
	
</g>
<g transform="translate(258, 20)">
	<svg t="1596816982094" class="icon" viewBox="0 0 1024 1024" version="1.1" xmlns="http://www.w3.org/2000/svg" p-id="7680" width="22" height="22"><path d="M33.032258 442.450581c0 52.108387 39.556129 95.52929 92.903226 108.065032l0 367.929806-61.935484 0C46.938839 918.445419 33.032258 930.981161 33.032258 946.456774S46.938839 974.451613 64 974.451613l929.032258 0C1010.209032 974.451613 1024 961.915871 1024 946.456774s-13.790968-27.994839-30.967742-27.994839l-61.935484 0L931.096774 550.515613C984.443871 537.979871 1024 494.558968 1024 442.450581l0-27.994839L33.032258 414.455742 33.032258 442.450581zM652.387097 554.446452c68.475871 0 123.870968-50.142968 123.870968-111.995871 0 52.108387 39.556129 95.52929 92.903226 108.065032l0 367.929806L404.645161 918.445419 404.645161 554.446452c68.475871 0 123.870968-50.142968 123.870968-111.995871C528.516129 504.303484 584.026839 554.446452 652.387097 554.446452zM373.677419 550.515613l0 367.929806-185.806452 0L187.870968 550.515613C241.218065 537.979871 280.774194 494.558968 280.774194 442.450581 280.774194 494.558968 320.330323 537.979871 373.677419 550.515613zM900.129032 162.452645l-743.225806 0L33.032258 386.444387l990.967742 0L900.129032 162.452645zM294.680774 224.685419l-61.935484 111.995871c-2.77471 4.921806-8.225032 7.762581-13.906581 7.762581-2.295742 0-4.657548-0.429419-6.887226-1.469935-7.613935-3.435355-10.768516-11.875097-6.887226-18.762323l61.935484-111.995871c3.864774-6.887226 13.113806-9.678452 20.744258-6.292645C295.407484 209.374968 298.429935 217.798194 294.680774 224.685419zM418.551742 224.685419l-61.935484 111.995871c-2.77471 4.921806-8.225032 7.762581-13.906581 7.762581-2.295742 0-4.657548-0.429419-6.887226-1.469935-7.613935-3.435355-10.768516-11.875097-6.887226-18.762323l61.935484-111.995871c3.864774-6.887226 13.179871-9.678452 20.744258-6.292645C419.278452 209.374968 422.300903 217.798194 418.551742 224.685419zM544.008258 330.45471c0 7.762581-6.903742 14.005677-15.492129 14.005677-8.538839 0-15.492129-6.226581-15.492129-14.005677l0-111.995871c0-7.762581 6.95329-14.005677 15.492129-14.005677 8.588387 0 15.492129 6.226581 15.492129 14.005677L544.008258 330.45471zM721.820903 342.709677c-2.411355 1.205677-4.954839 1.75071-7.498323 1.75071-5.450323 0-10.768516-2.626065-13.543226-7.267097l-67.749161-111.995871c-4.112516-6.788129-1.32129-15.310452 6.160516-18.977032 7.38271-3.716129 16.929032-1.32129 21.058065 5.516387l67.749161 111.995871C731.978323 330.504258 729.319226 339.043097 721.820903 342.709677zM845.09729 342.973935c-2.196645 1.040516-4.475871 1.469935-6.903742 1.469935-5.681548 0-11.131871-2.840774-13.790968-7.762581l-61.935484-111.995871c-3.864774-6.887226-0.72671-15.310452 6.887226-18.762323 7.514839-3.435355 16.929032-0.660645 20.810323 6.292645l61.935484 111.995871C855.84929 331.098839 852.843355 339.538581 845.09729 342.973935zM296.266323 754.704516l0-64.512C287.182452 685.254194 280.774194 676.731871 280.774194 666.458839c0-15.475613 13.906581-27.994839 30.967742-27.994839 17.176774 0 30.967742 12.535742 30.967742 27.994839 0 10.273032-6.35871 18.811871-15.492129 23.750194l0 64.512c9.133419 4.938323 15.492129 13.460645 15.492129 23.750194 0 15.475613-13.790968 27.994839-30.967742 27.994839-17.061161 0-30.967742-12.535742-30.967742-27.994839C280.774194 768.181677 287.182452 759.642839 296.266323 754.704516zM156.903226 106.446452c0-15.475613 13.906581-27.994839 30.967742-27.994839l681.290323 0c17.176774 0 30.967742 12.519226 30.967742 27.994839s-13.790968 27.994839-30.967742 27.994839l-681.290323 0C170.809806 134.457806 156.903226 121.922065 156.903226 106.446452zM575.801806 704.346839l-21.883871-19.802839 87.585032-79.194839 21.883871 19.802839L575.801806 704.346839zM575.801806 783.541677l-21.883871-19.802839 175.153548-158.389677 21.883871 19.802839L575.801806 783.541677zM729.088 684.544l21.883871 19.802839-87.585032 79.194839-21.883871-19.802839L729.088 684.544z" p-id="7681" fill="#8a8a8a"></path></svg>
</g>
<g transform="translate(18, 80)">
	<svg t="1597077311077" class="icon" viewBox="0 0 1152 1024" version="1.1" xmlns="http://www.w3.org/2000/svg" p-id="8110" width="24" height="24"><path d="M976 625.4V912c0 26.6-21.4 48-48 48H696c-13.2 0-24-10.8-24-24V712c0-13.2-10.8-24-24-24h-144c-13.2 0-24 10.8-24 24v224c0 13.2-10.8 24-24 24H224c-26.6 0-48-21.4-48-48V625.4c0-7.2 3.2-14 8.8-18.6l376-309.6c8.8-7.2 21.6-7.2 30.6 0l376 309.6c5.4 4.6 8.6 11.4 8.6 18.6z m167.2-121.8L976 365.8V88.8c0-13.2-10.8-24-24-24h-112c-13.2 0-24 10.8-24 24V234l-179-147.4c-35.4-29.2-86.6-29.2-122 0L8.8 503.6c-10.2 8.4-11.6 23.6-3.2 33.8l51 62c8.4 10.2 23.6 11.6 33.8 3.2l470.4-387.4c8.8-7.2 21.6-7.2 30.6 0l470.4 387.4c10.2 8.4 25.4 7 33.8-3.2l51-62c8.4-10.4 6.8-25.4-3.4-33.8z" fill="#d81e06" p-id="8111"></path></svg>
</g>
<g transform="translate(78, 80)">
	<svg t="1595412775815" class="icon" viewBox="0 0 1024 1024" version="1.1" xmlns="http://www.w3.org/2000/svg" p-id="11114" width="24" height="24"><path d="M746.500337 444.954001l-39.047318 0c-7.852852 0-14.527878-3.227508-19.806091-9.903557-5.41022-6.588045-8.15882-14.44192-8.15882-23.559579 0-46.332235-16.316617-85.859483-48.950875-118.449739-32.722262-32.67826-72.249511-49.082882-118.581746-49.082882l-100.519368 0c-46.332235 0-85.773526 16.404622-118.449739 49.082882-32.67826 32.590256-49.082882 72.117504-49.082882 118.449739l0 201.01827c0 46.332235 16.404622 85.881996 49.082882 118.559233 32.676214 32.69975 72.117504 48.994877 118.449739 48.994877l201.125717 0c46.334281 0 85.773526-16.295128 118.451786-48.994877 32.67826-32.67826 49.080835-72.226998 49.080835-118.559233L780.094456 478.547097c0-9.140171-3.315512-16.991999-10.033517-23.668049C763.514849 448.313515 755.661997 444.954001 746.500337 444.954001zM388.575458 391.18233c7.066953-8.748245 15.399735-13.154601 25.12933-13.154601l107.281375 0c9.643638 0 18.063401 4.40738 25.131377 13.154601 7.02295 8.834202 10.600429 19.327184 10.600429 31.498388 0 12.08627-3.577478 22.578228-10.600429 31.41243-7.066953 8.834202-15.487739 13.240559-25.131377 13.240559L413.703765 467.333708c-9.729595 0-18.061354-4.40738-25.12933-13.240559-7.068999-8.834202-10.602476-19.327184-10.602476-31.41243C377.971959 410.509515 381.505435 400.016533 388.575458 391.18233zM636.121414 632.81767c-6.719028 8.855692-14.527878 13.263072-23.559579 13.263072L411.435095 646.080741c-9.031701 0-16.97051-4.40738-23.559579-13.263072-6.544043-8.81169-9.903557-19.327184-9.903557-31.498388 0-12.063757 3.359514-22.578228 9.903557-31.41243 6.589069-8.813736 14.527878-13.240559 23.559579-13.240559l201.125717 0c9.031701 0 16.84055 4.426823 23.559579 13.240559 6.544043 8.834202 9.903557 19.348674 9.903557 31.41243C646.024971 613.490485 642.664434 624.004957 636.121414 632.81767zM780.093433 65.213257 243.903497 65.213257c-98.642624 0-178.61298 80.101339-178.61298 178.744987l0 536.105001c0 98.730629 79.969333 178.722474 178.61298 178.722474l536.190959 0c98.642624 0 178.615027-79.991846 178.615027-178.722474L958.709483 243.958244C958.70846 145.31562 878.73708 65.213257 780.093433 65.213257zM869.401458 735.387743c0 74.015737-59.989279 133.983527-134.069485 133.983527L288.667004 869.37127c-74.082252 0-134.115534-59.96779-134.115534-133.983527l0-446.775486c0-74.015737 60.033281-133.961014 134.115534-133.961014l446.664969 0c74.080206 0 134.069485 59.945277 134.069485 133.961014L869.401458 735.387743z" p-id="11115" fill="#d81e06"></path></svg>
</g>
<g transform="translate(138, 80)">
	<svg t="1595412133234" class="icon" viewBox="0 0 1024 1024" version="1.1" xmlns="http://www.w3.org/2000/svg" p-id="5377" width="24" height="24"><path d="M1024 496C1012.8 232 798.4 17.6 534.4 8 393.6 1.6 259.2 52.8 156.8 150.4 56 248 0 379.2 0 520c0 230.4 155.2 433.6 376 492.8 6.4 1.6 12.8 3.2 19.2 3.2 16 0 32-4.8 44.8-16 17.6-14.4 28.8-35.2 28.8-57.6v-52.8c0-14.4 1.6-78.4 1.6-91.2 1.6-8 3.2-14.4 8-19.2 11.2-14.4 12.8-33.6 4.8-49.6-8-14.4-20.8-24-36.8-25.6-11.2-1.6-22.4-3.2-30.4-6.4-12.8-3.2-25.6-9.6-38.4-16-9.6-4.8-19.2-12.8-27.2-22.4-6.4-8-12.8-20.8-17.6-36.8-6.4-19.2-9.6-40-9.6-62.4 0-28.8 9.6-52.8 27.2-72l17.6-19.2-9.6-24c-3.2-8-6.4-19.2-4.8-38.4 22.4 8 28.8 12.8 28.8 12.8l1.6 1.6c6.4 3.2 11.2 8 16 9.6l19.2 11.2 16-4.8c27.2-8 54.4-11.2 83.2-11.2 28.8 0 56 3.2 83.2 11.2l16 4.8 33.6-20.8c11.2-6.4 22.4-12.8 35.2-17.6 1.6 14.4 0 27.2-4.8 40l-9.6 24 17.6 19.2c17.6 19.2 27.2 43.2 27.2 72 0 24-3.2 43.2-8 60.8-6.4 19.2-12.8 30.4-19.2 38.4-6.4 8-16 16-28.8 24-14.4 8-25.6 11.2-38.4 16-8 3.2-20.8 4.8-32 6.4h-1.6c-16 3.2-28.8 14.4-35.2 28.8-6.4 14.4-4.8 30.4 4.8 44.8 6.4 8 9.6 20.8 9.6 36.8v126.4c0 22.4 11.2 44.8 28.8 57.6 17.6 12.8 41.6 17.6 64 11.2C888 942.4 1035.2 729.6 1024 496zM651.2 931.2V816c0-14.4-1.6-27.2-4.8-38.4 17.6-4.8 35.2-11.2 54.4-22.4l1.6-1.6c20.8-12.8 36.8-25.6 49.6-41.6 16-19.2 25.6-41.6 33.6-64 8-25.6 12.8-52.8 12.8-86.4 0-41.6-11.2-76.8-33.6-108.8 6.4-33.6 3.2-67.2-11.2-104l-6.4-17.6-17.6-6.4c-17.6-6.4-40-4.8-67.2 6.4-17.6 6.4-33.6 14.4-51.2 24l-3.2 3.2c-56-12.8-116.8-12.8-174.4 0-1.6-1.6-3.2-1.6-4.8-3.2-9.6-6.4-24-14.4-46.4-22.4-27.2-12.8-51.2-14.4-70.4-8l-17.6 6.4-6.4 17.6c-14.4 38.4-17.6 72-9.6 104-22.4 30.4-33.6 67.2-33.6 108.8 0 30.4 3.2 57.6 12.8 84.8 8 27.2 19.2 49.6 32 65.6 16 17.6 32 32 51.2 41.6 17.6 9.6 35.2 17.6 54.4 22.4-1.6 4.8-1.6 9.6-3.2 16V843.2c-38.4-12.8-70.4-28.8-96-56-17.6-19.2-36.8-38.4-46.4-44.8-20.8-9.6-33.6 11.2-28.8 20.8 4.8 14.4 25.6 22.4 36.8 33.6 12.8 12.8 14.4 30.4 25.6 44.8 16 22.4 72 49.6 110.4 41.6v51.2C206.4 881.6 80 712 80 520c0-118.4 46.4-228.8 132.8-312C294.4 129.6 400 88 513.6 88h17.6C753.6 96 934.4 276.8 944 499.2c9.6 193.6-110.4 369.6-292.8 432z" p-id="5378" fill="#d81e06"></path></svg>
</g>
<g transform="translate(197, 80)">
    <svg t="1615355175365" class="icon" viewBox="0 0 1024 1024" version="1.1" xmlns="http://www.w3.org/2000/svg" p-id="2133" width="25" height="25"><path d="M723.07624 239.356169c-17.756912 16.022945-37.442863 37.825781-59.070497 65.381416h113.237117c-1.647269 19.47643-2.470904 37.56388-2.470904 54.246094 0 15.421475 0.823635 35.150775 2.470904 59.184289h-64.286849v-63.96715h-400.889703v73.809222H247.777652c1.649075-25.021514 2.463679-46.39989 2.463679-64.120678 0-19.147699-0.814604-38.857131-2.463679-59.14997h123.073771c-19.606478-20.578222-38.48505-42.816357-56.632105-66.716211 16.066294-10.606102 32.139812-21.204979 48.2043-31.811081 24.736132 24.736132 46.50465 52.795702 65.303749 84.171485-15.240853 10.485085-27.548411 15.26614-36.904611 14.355807h90.760562c0-29.154137-0.807379-61.97128-2.431167-98.447819h66.718017c-1.621982 31.930291-2.429361 64.747435-2.429361 98.447819h59.106621c26.036608-38.282754 42.1896-69.477915 48.439108-93.587291 25.464037 11.84336 49.497551 21.244716 72.089704 28.204068zM715.699653 533.60325a953.32637 953.32637 0 0 0-2.47271 69.024555c0 23.643371 0.823635 47.476395 2.47271 71.500877h-64.281431V583.100801H373.60229v100.882597H309.315441c1.649075-28.348564 2.47271-53.830664 2.47271-76.448104 0-22.56506-0.825441-47.207269-2.47271-73.930238l406.384212-0.001806z" fill="#d81e06" p-id="2134"></path><path d="M545.870168 609.536582c-18.797293 55.826533-38.492275 92.304877-59.070497 109.445869-20.580028 17.142799-46.338479 31.984478-77.289801 44.516006-30.942291 12.54056-76.924945 22.957009-137.924481 31.245736-4.000769-17.209629-15.222791-37.590973-33.658841-61.153065 48.197075-1.988644 86.671288-6.571015 115.435283-13.763368 28.762188-7.186935 54.896331-19.398763 78.382561-36.62826 23.493455-17.236722 37.910673-48.249455 43.248043-93.041812 23.627115 6.457223 47.252424 12.921671 70.877733 19.378894zM688.637115 511.713715H336.377979c1.649075-26.697683 2.47271-49.723328 2.47271-69.069711 0-19.216335-0.825441-39.760239-2.47271-61.615456h352.259136v130.685167z m-64.288656-47.026647v-34.206124H400.664829v34.206124h223.68363zM579.164152 649.228185c77.50474 30.306503 141.881901 62.533014 193.133288 96.684951-16.057263 14.615902-30.292053 30.06447-42.70979 46.356541-36.377196-26.777156-97.703657-57.585787-183.993833-92.443956 13.393094-19.899085 24.578991-36.76192 33.570335-50.597536z" fill="#d81e06" p-id="2135"></path><path d="M1023.999097 511.999097c0 282.770383-229.23052 511.999097-511.993678 511.999097C229.231423 1024 0.000903 794.771286 0.000903 511.999097 0.000903 229.235939 229.231423 0 512.003612 0 794.768577 0 1023.999097 229.235939 1023.999097 511.999097zM512.003612 76.802122c-240.356812 0-435.207812 194.849193-435.207811 435.196975 0 240.355006 194.851 435.206006 435.207811 435.206006 240.349588 0 435.198781-194.851 435.198781-435.206006 0-240.345975-194.849193-435.196975-435.198781-435.196975z" fill="#d81e06" p-id="2136"></path></svg>
</g>
<g transform="translate(258, 80)">
	<svg t="1596816982094" class="icon" viewBox="0 0 1024 1024" version="1.1" xmlns="http://www.w3.org/2000/svg" p-id="7680" width="22" height="22"><path d="M33.032258 442.450581c0 52.108387 39.556129 95.52929 92.903226 108.065032l0 367.929806-61.935484 0C46.938839 918.445419 33.032258 930.981161 33.032258 946.456774S46.938839 974.451613 64 974.451613l929.032258 0C1010.209032 974.451613 1024 961.915871 1024 946.456774s-13.790968-27.994839-30.967742-27.994839l-61.935484 0L931.096774 550.515613C984.443871 537.979871 1024 494.558968 1024 442.450581l0-27.994839L33.032258 414.455742 33.032258 442.450581zM652.387097 554.446452c68.475871 0 123.870968-50.142968 123.870968-111.995871 0 52.108387 39.556129 95.52929 92.903226 108.065032l0 367.929806L404.645161 918.445419 404.645161 554.446452c68.475871 0 123.870968-50.142968 123.870968-111.995871C528.516129 504.303484 584.026839 554.446452 652.387097 554.446452zM373.677419 550.515613l0 367.929806-185.806452 0L187.870968 550.515613C241.218065 537.979871 280.774194 494.558968 280.774194 442.450581 280.774194 494.558968 320.330323 537.979871 373.677419 550.515613zM900.129032 162.452645l-743.225806 0L33.032258 386.444387l990.967742 0L900.129032 162.452645zM294.680774 224.685419l-61.935484 111.995871c-2.77471 4.921806-8.225032 7.762581-13.906581 7.762581-2.295742 0-4.657548-0.429419-6.887226-1.469935-7.613935-3.435355-10.768516-11.875097-6.887226-18.762323l61.935484-111.995871c3.864774-6.887226 13.113806-9.678452 20.744258-6.292645C295.407484 209.374968 298.429935 217.798194 294.680774 224.685419zM418.551742 224.685419l-61.935484 111.995871c-2.77471 4.921806-8.225032 7.762581-13.906581 7.762581-2.295742 0-4.657548-0.429419-6.887226-1.469935-7.613935-3.435355-10.768516-11.875097-6.887226-18.762323l61.935484-111.995871c3.864774-6.887226 13.179871-9.678452 20.744258-6.292645C419.278452 209.374968 422.300903 217.798194 418.551742 224.685419zM544.008258 330.45471c0 7.762581-6.903742 14.005677-15.492129 14.005677-8.538839 0-15.492129-6.226581-15.492129-14.005677l0-111.995871c0-7.762581 6.95329-14.005677 15.492129-14.005677 8.588387 0 15.492129 6.226581 15.492129 14.005677L544.008258 330.45471zM721.820903 342.709677c-2.411355 1.205677-4.954839 1.75071-7.498323 1.75071-5.450323 0-10.768516-2.626065-13.543226-7.267097l-67.749161-111.995871c-4.112516-6.788129-1.32129-15.310452 6.160516-18.977032 7.38271-3.716129 16.929032-1.32129 21.058065 5.516387l67.749161 111.995871C731.978323 330.504258 729.319226 339.043097 721.820903 342.709677zM845.09729 342.973935c-2.196645 1.040516-4.475871 1.469935-6.903742 1.469935-5.681548 0-11.131871-2.840774-13.790968-7.762581l-61.935484-111.995871c-3.864774-6.887226-0.72671-15.310452 6.887226-18.762323 7.514839-3.435355 16.929032-0.660645 20.810323 6.292645l61.935484 111.995871C855.84929 331.098839 852.843355 339.538581 845.09729 342.973935zM296.266323 754.704516l0-64.512C287.182452 685.254194 280.774194 676.731871 280.774194 666.458839c0-15.475613 13.906581-27.994839 30.967742-27.994839 17.176774 0 30.967742 12.535742 30.967742 27.994839 0 10.273032-6.35871 18.811871-15.492129 23.750194l0 64.512c9.133419 4.938323 15.492129 13.460645 15.492129 23.750194 0 15.475613-13.790968 27.994839-30.967742 27.994839-17.061161 0-30.967742-12.535742-30.967742-27.994839C280.774194 768.181677 287.182452 759.642839 296.266323 754.704516zM156.903226 106.446452c0-15.475613 13.906581-27.994839 30.967742-27.994839l681.290323 0c17.176774 0 30.967742 12.519226 30.967742 27.994839s-13.790968 27.994839-30.967742 27.994839l-681.290323 0C170.809806 134.457806 156.903226 121.922065 156.903226 106.446452zM575.801806 704.346839l-21.883871-19.802839 87.585032-79.194839 21.883871 19.802839L575.801806 704.346839zM575.801806 783.541677l-21.883871-19.802839 175.153548-158.389677 21.883871 19.802839L575.801806 783.541677zM729.088 684.544l21.883871 19.802839-87.585032 79.194839-21.883871-19.802839L729.088 684.544z" p-id="7681" fill="#d81e06"></path></svg>
</g>
</svg>